<svg width="94" height="20" viewBox="0 0 94 20" fill="none" xmlns="http://www.w3.org/2000/svg">
<path d="M19.3316 12.4191C18.0209 17.7762 12.696 21.0365 7.438 19.7006C2.18216 18.3649 -1.01742 12.9387 0.293938 7.58192C1.60407 2.22416 6.92892 -1.03643 12.1854 0.299185C17.4431 1.6348 20.6423 7.06162 19.3316 12.4191Z" fill="#FCA014"/>
<path d="M14.1395 8.57465C14.3348 7.24404 13.3406 6.52873 11.9811 6.05155L12.4221 4.24906L11.3454 3.97563L10.916 5.73061C10.6329 5.65874 10.3422 5.59093 10.0533 5.52374L10.4857 3.75719L9.4096 3.48376L8.96829 5.28561C8.73399 5.23124 8.50398 5.17749 8.28072 5.12093L8.28194 5.11531L6.79702 4.73749L6.51058 5.90936C6.51058 5.90936 7.30947 6.09592 7.29261 6.10748C7.7287 6.21842 7.80751 6.51247 7.79433 6.7456L7.29199 8.79902C7.32204 8.80683 7.361 8.81808 7.40393 8.83558C7.36805 8.82652 7.32972 8.81651 7.29015 8.80683L6.58601 11.6834C6.53265 11.8184 6.39741 12.0209 6.09258 11.944C6.10331 11.9599 5.30993 11.7449 5.30993 11.7449L4.77539 13.0009L6.1766 13.3568C6.43728 13.4233 6.69274 13.493 6.94421 13.5587L6.49862 15.3818L7.57414 15.6552L8.01544 13.8515C8.30924 13.9327 8.59445 14.0077 8.87353 14.0783L8.43376 15.8736L9.5105 16.1471L9.9561 14.3274C11.7922 14.6815 13.1728 14.5386 13.754 12.8465C14.2223 11.484 13.7307 10.6981 12.7647 10.1856C13.4682 10.0203 13.9981 9.5487 14.1395 8.57465ZM11.6793 12.0899C11.3466 13.4524 9.09525 12.7159 8.36536 12.5312L8.95664 10.1159C9.68653 10.3015 12.0271 10.669 11.6793 12.0899ZM12.0124 8.55496C11.7088 9.79432 9.83496 9.16464 9.22713 9.01026L9.7632 6.81967C10.371 6.97404 12.3286 7.26216 12.0124 8.55496Z" fill="white"/>
<g opacity="0.5">
<path d="M28.7591 6.04947C29.555 6.04947 30.2425 6.19478 30.8203 6.48009C31.4009 6.76821 31.8799 7.15634 32.2641 7.64446C32.6432 8.13508 32.9253 8.70851 33.1075 9.36569C33.2885 10.0247 33.3792 10.7332 33.3792 11.4916C33.3792 12.6566 33.1698 13.7572 32.7469 14.7947C32.3239 15.8338 31.7502 16.735 31.0203 17.5037C30.291 18.2715 29.4298 18.8768 28.4368 19.324C27.4453 19.7715 26.3673 19.9953 25.2099 19.9953C25.0603 19.9953 24.7972 19.9909 24.4255 19.9831C24.0538 19.9753 23.6266 19.9362 23.1482 19.8703C22.6667 19.8018 22.1576 19.7006 21.62 19.565C21.0827 19.4318 20.5724 19.2453 20.0918 19.0084L24.389 0.609846L28.2378 0.00203705L26.6992 6.53104C27.0285 6.37979 27.3604 6.2626 27.6916 6.17728C28.0231 6.09322 28.3788 6.04947 28.7591 6.04947ZM25.5307 16.8841C26.1103 16.8841 26.6565 16.7387 27.1696 16.4534C27.6842 16.1678 28.1283 15.7822 28.5003 15.3019C28.8723 14.8194 29.1667 14.276 29.3814 13.6688C29.596 13.0616 29.7046 12.4282 29.7046 11.7691C29.7046 10.9594 29.5718 10.3279 29.3072 9.87131C29.0425 9.41663 28.5527 9.18788 27.8415 9.18788C27.6085 9.18788 27.3082 9.23319 26.9359 9.31413C26.5624 9.40006 26.2281 9.5785 25.9285 9.84694L24.2902 16.7806C24.389 16.7984 24.4764 16.8153 24.5509 16.8312C24.6239 16.8484 24.7045 16.8606 24.7849 16.8691C24.8698 16.8787 24.9671 16.8837 25.0845 16.8837C25.202 16.8837 25.3489 16.8841 25.5307 16.8841Z" fill="#1A202C"/>
<path d="M37.3705 19.6433H33.6943L36.7988 6.33187H40.5001L37.3705 19.6433ZM39.1593 4.71002C38.6463 4.71002 38.181 4.55439 37.7682 4.24252C37.3521 3.93252 37.146 3.45534 37.146 2.81222C37.146 2.45848 37.2165 2.1266 37.3564 1.81348C37.4984 1.50098 37.6839 1.23193 37.9164 1.00318C38.1485 0.776305 38.4175 0.595053 38.7229 0.458492C39.0302 0.324119 39.3571 0.256935 39.7055 0.256935C40.2183 0.256935 40.6811 0.412559 41.0954 0.724431C41.5082 1.03787 41.7158 1.51505 41.7158 2.15473C41.7158 2.50972 41.6456 2.84284 41.5045 3.15534C41.3644 3.46784 41.1788 3.73689 40.9463 3.96564C40.716 4.19283 40.4446 4.37345 40.1398 4.50876C39.8322 4.64532 39.5065 4.71002 39.1593 4.71002Z" fill="#1A202C"/>
<path d="M43.7213 3.01516L47.5716 2.40736L46.6261 6.33107H50.7497L50.0051 9.41791H45.9064L44.8146 14.0741C44.714 14.4622 44.657 14.8247 44.641 15.1616C44.6229 15.5 44.6649 15.7907 44.7643 16.0353C44.863 16.2807 45.0406 16.4697 45.2982 16.6035C45.5546 16.7394 45.9217 16.8078 46.4032 16.8078C46.7997 16.8078 47.1861 16.7694 47.5597 16.6931C47.9311 16.6182 48.3073 16.5138 48.6882 16.3772L48.9624 19.2634C48.4656 19.4491 47.9277 19.6087 47.3481 19.7431C46.7675 19.8794 46.0803 19.945 45.286 19.945C44.1439 19.945 43.2585 19.7722 42.6277 19.4281C41.9978 19.0816 41.5525 18.6081 41.286 18.0088C41.0231 17.4116 40.9057 16.7232 40.9385 15.9475C40.9725 15.17 41.0875 14.3529 41.286 13.4923L43.7213 3.01516Z" fill="#1A202C"/>
</g>
<path d="M50.5889 14.3276C50.5889 13.1811 50.771 12.0999 51.1351 11.0877C51.4985 10.0746 52.022 9.18863 52.7013 8.42833C53.3781 7.67177 54.2028 7.0724 55.1734 6.6324C56.1394 6.19491 57.2211 5.97429 58.4131 5.97429C59.1593 5.97429 59.8257 6.04617 60.4121 6.19023C61.0009 6.33554 61.5336 6.52335 62.0154 6.75897L60.7476 9.69644C60.4164 9.55957 60.0726 9.43894 59.7171 9.32957C59.3614 9.21801 58.9271 9.16426 58.4134 9.16426C57.1864 9.16426 56.2164 9.59519 55.4945 10.4542C54.7753 11.3139 54.4131 12.4711 54.4131 13.9226C54.4131 14.783 54.5953 15.4786 54.9609 16.0108C55.3246 16.5429 55.9965 16.8076 56.9721 16.8076C57.4535 16.8076 57.9182 16.7564 58.3631 16.6564C58.8115 16.5551 59.2074 16.4276 59.5561 16.277L59.8306 19.2882C59.3657 19.472 58.8529 19.6379 58.2905 19.7832C57.7268 19.9235 57.0558 19.9963 56.2777 19.9963C55.2507 19.9963 54.3812 19.8432 53.6701 19.5417C52.9586 19.2354 52.3707 18.8288 51.9076 18.3139C51.442 17.7976 51.1078 17.1948 50.9011 16.5029C50.6944 15.8117 50.5889 15.0854 50.5889 14.3276Z" fill="#1A202C"/>
<path d="M66.9185 19.9963C66.0411 19.9963 65.279 19.8601 64.6326 19.5904C63.9879 19.3207 63.454 18.9423 63.0317 18.4517C62.6088 17.9635 62.2923 17.3851 62.0755 16.7186C61.8587 16.0523 61.7544 15.3145 61.7544 14.5061C61.7544 13.492 61.9142 12.4783 62.2371 11.4674C62.5585 10.4542 63.0354 9.54395 63.6665 8.73489C64.2928 7.92459 65.0653 7.26208 65.9749 6.74553C66.8836 6.23241 67.9287 5.97429 69.1027 5.97429C69.9642 5.97429 70.7223 6.11085 71.3776 6.38053C72.0299 6.64959 72.5672 7.03115 72.992 7.51927C73.4121 8.00989 73.7314 8.58583 73.9461 9.25332C74.1623 9.91832 74.269 10.658 74.269 11.467C74.269 12.478 74.1114 13.4917 73.7986 14.5058C73.4854 15.5148 73.0208 16.4273 72.4075 17.2382C71.7953 18.0473 71.0299 18.7095 70.1104 19.2238C69.1923 19.7382 68.1275 19.9963 66.9185 19.9963ZM68.7559 9.16457C68.2109 9.16457 67.7291 9.32581 67.3166 9.64425C66.9026 9.96643 66.5548 10.3714 66.2745 10.8599C65.9911 11.3505 65.7811 11.8855 65.6391 12.467C65.4983 13.0498 65.4293 13.6008 65.4293 14.1242C65.4293 14.9689 65.563 15.6267 65.8259 16.1001C66.0924 16.5711 66.5711 16.8079 67.2669 16.8079C67.8137 16.8079 68.2931 16.6479 68.708 16.3261C69.1196 16.0064 69.4677 15.6011 69.7501 15.1117C70.0316 14.6236 70.2435 14.087 70.3855 13.5045C70.5245 12.9236 70.5953 12.3695 70.5953 11.847C70.5953 11.0046 70.4622 10.3452 70.1969 9.87237C69.932 9.40144 69.4511 9.16457 68.7559 9.16457Z" fill="#1A202C"/>
<path d="M78.2759 19.6433H74.5967L77.7012 6.33185H81.4043L78.2759 19.6433ZM80.062 4.70999C79.5492 4.70999 79.0843 4.55437 78.6721 4.2425C78.2581 3.9325 78.0502 3.45532 78.0502 2.8122C78.0502 2.45845 78.1216 2.12658 78.2618 1.81346C78.4019 1.50096 78.5887 1.2319 78.8212 1.00315C79.0521 0.776282 79.3235 0.59503 79.6283 0.458469C79.9338 0.324096 80.2607 0.256912 80.6079 0.256912C81.1219 0.256912 81.5862 0.412536 81.9996 0.724408C82.4133 1.03784 82.6221 1.51502 82.6221 2.15471C82.6221 2.5097 82.5479 2.84282 82.409 3.15532C82.2701 3.46782 82.0833 3.73687 81.8518 3.96562C81.6187 4.1928 81.3506 4.37343 81.0452 4.50874C80.7373 4.6453 80.411 4.70999 80.062 4.70999Z" fill="#1A202C"/>
<path d="M84.0543 6.93716C84.3334 6.85403 84.645 6.75404 84.9839 6.64529C85.324 6.53654 85.704 6.4353 86.1284 6.34405C86.5482 6.24998 87.0221 6.17373 87.5431 6.11467C88.0642 6.05436 88.6579 6.02498 89.3175 6.02498C91.2564 6.02498 92.5929 6.60029 93.3307 7.74747C94.068 8.89464 94.1956 10.4646 93.7171 12.4546L92.0261 19.642H88.3257L89.9646 12.6059C90.0646 12.1665 90.1431 11.7418 90.2011 11.3268C90.2597 10.9156 90.2563 10.5531 90.1879 10.2393C90.1226 9.92932 89.9686 9.67557 89.7297 9.47901C89.4871 9.28557 89.1207 9.18839 88.6235 9.18839C88.1442 9.18839 87.6566 9.24089 87.1588 9.34214L84.7493 19.6417H81.0474L84.0543 6.93716Z" fill="#1A202C"/>
</svg>
