<svg width="141" height="24" viewBox="0 0 141 24" fill="none" xmlns="http://www.w3.org/2000/svg">
<path d="M8.672 24L0.352 0.159998H5.088L11.616 19.904H10.688L17.216 0.159998H21.952L13.664 24H8.672ZM23.6565 24V0.159998H28.0085V10.56H38.1525V0.159998H42.5365V24H38.1525V14.4H28.0085V24H23.6565ZM46.6773 17.152V13.472H60.2773V17.152H46.6773ZM64.3927 24V0.159998H73.2567C74.8781 0.159998 76.3074 0.458665 77.5447 1.056C78.8034 1.632 79.7848 2.48533 80.4888 3.616C81.1928 4.72533 81.5448 6.08 81.5448 7.68C81.5448 9.32267 81.1501 10.72 80.3608 11.872C79.5927 13.024 78.5474 13.8773 77.2247 14.432L82.6968 24H77.7687L71.9127 13.536L74.7287 15.2H68.7447V24H64.3927ZM68.7447 11.36H73.3207C74.1101 11.36 74.7927 11.2107 75.3687 10.912C75.9447 10.592 76.3927 10.1547 76.7127 9.6C77.0327 9.04533 77.1927 8.40533 77.1927 7.68C77.1927 6.93333 77.0327 6.29333 76.7127 5.76C76.3927 5.20533 75.9447 4.77867 75.3687 4.48C74.7927 4.16 74.1101 4 73.3207 4H68.7447V11.36ZM84.589 24V0.159998H100.429V4H88.941V10.112H99.789V13.952H88.941V20.16H100.429V24H84.589ZM102.66 24V0.159998H106.052L119.172 17.824L117.412 18.176V0.159998H121.764V24H118.34L105.412 6.208L107.012 5.856V24H102.66ZM129.643 24V4H123.467V0.159998H140.107V4H134.027V24H129.643Z" fill="#3563E9"/>
</svg>
